<svg width="80" height="80" fill="none" xmlns="http://www.w3.org/2000/svg"><defs><clipPath id="a"><rect rx="0" width="79" height="79" transform="translate(.5 .5)" fill="#fff" fill-opacity="0"/></clipPath></defs><rect rx="0" width="79" height="79" transform="translate(.5 .5)"/><g clip-path="url(#a)" fill-rule="evenodd"><path d="M40 0a39.974 39.974 0 0 0-28.29 11.71A40.01 40.01 0 0 0 0 40c0 10.6 4.21 20.78 11.71 28.28A40.063 40.063 0 0 0 40 80a40.013 40.013 0 0 0 40-40 40.063 40.063 0 0 0-11.72-28.29A40.063 40.063 0 0 0 55.3 3.04 39.962 39.962 0 0 0 40 0Zm0 56c-10.52 0-20-6.28-24-16 5.52-13.24 20.75-19.52 34-14a26.116 26.116 0 0 1 14 14c-4 9.72-13.48 16-24 16Z" fill="#3F2AFF"/><path d="M40.357 30.313a10.045 10.045 0 1 0 0 20.09 10.045 10.045 0 0 0 0-20.09Zm0 5.524a4.52 4.52 0 1 0 0 9.04 4.52 4.52 0 0 0 0-9.04Z" clip-rule="evenodd" fill="#212133"/></g></svg>