<svg width="25" height="25" fill="none" xmlns="http://www.w3.org/2000/svg"><rect rx="0" width="24" height="24" transform="translate(.5 .5)"/><path d="M20 18.11C20 22.1 17 25 12.25 25a9.905 9.905 0 0 1-3.95-.97c-1.25-.59-2.37-1.44-3.3-2.5l1.58-1.86c1.49 1.5 3.24 2.96 5.64 2.96 2.66 0 5.53-1.58 5.53-4.43 0-2.37-1.77-3.91-5.49-5.13-4.23-1.37-6.38-3.24-6.38-6.75C5.87 2.85 8.64 0 12.58 0c2.95 0 4.79 1.33 6.59 3.03L17.6 4.88c-1.57-1.48-3.07-2.49-4.91-2.49-2.28 0-4.53 1.56-4.53 3.81 0 2.04 1.1 3.34 5 4.61 3.56 1.16 6.84 2.97 6.84 7.3Z" fill="#333" fill-rule="evenodd"/></svg>