<svg width="80" height="80" fill="none" xmlns="http://www.w3.org/2000/svg"><defs><clipPath id="b"><rect rx="0" width="30.429" height="30.429" transform="translate(25.5 24.786)" fill="#fff" fill-opacity="0"/></clipPath><clipPath id="a"><rect rx="0" width="79" height="79" transform="translate(.5 .5)" fill="#fff" fill-opacity="0"/></clipPath></defs><rect rx="0" width="79" height="79" transform="translate(.5 .5)"/><g clip-path="url(#a)"><rect rx="0" width="30.429" height="30.429" transform="translate(25.5 24.786)"/><g clip-path="url(#b)" fill="#212133"><path d="M37.9 43.36c0 .31.26.56.57.56h.71c-.12-.36-.16-.74-.12-1.12h-.59c-.31 0-.57.25-.57.56Zm4.45-19.04c-.44-.09-.9-.01-1.27.24-.37.24-.64.62-.73 1.06l-1.62 10.3c-.07.39-.41.68-.8.69a.83.83 0 0 1-.85-.64l-1.98-9.11c-.09-.61-.51-1.12-1.08-1.34-.58-.21-1.23-.1-1.69.31-.47.4-.68 1.03-.54 1.63l1.88 10.29c.14.78.13 1.59-.03 2.37.57-.57 1.18-1.09 1.83-1.57.68-.52 1.5-.8 2.35-.8h3.75l2.07-11.43c.1-.43.02-.89-.23-1.27a1.67 1.67 0 0 0-1.06-.73Z"/><path d="M43.12 45.11c-.3.22-.63.37-.98.45.08.12.14.25.2.38.08.18.06.38-.04.53a.554.554 0 0 1-.98-.08 2.229 2.229 0 0 0-2.06-1.34h-.8a1.686 1.686 0 0 1 0-3.37h1.69c1.24 0 2.24-1.01 2.24-2.25v-.56h-4.57c-.61 0-1.2.2-1.68.56-2.2 1.64-4.41 4.08-4.41 6.87 0 1.25.39 2.47 1.12 3.49l2.81 3.88c.42.59.62 1.31.56 2.04h9.54c0-1.53-.15-1.12 2.32-5.33.65-1.31 1.01-2.75 1.05-4.21v-2.59l-1.31 2.08c-.52.89-1.51 1.38-2.53 1.27a2.58 2.58 0 0 1-2.17-1.82Z"/><path d="M40.18 42.8c-.11.47.04.96.38 1.3.34.34.83.49 1.3.38.81-.17 1.12-.81 1.54-1.53 2.29-3.66 2.21-3.51 2.25-3.62.51-.73.34-1.73-.38-2.25-.36-.2-.79-.25-1.19-.13-.4.11-.74.38-.94.75l-.15.24c.32.2.52.55.52.93v.56c0 1.85-1.49 3.36-3.33 3.37Zm8.84-3.93a1.54 1.54 0 0 0-2.08.56c-.32.53.23-.4-2.58 4.12-.22.35-.29.77-.2 1.18.15.59.65 1.03 1.25 1.1.61.07 1.19-.24 1.47-.78l2.59-4.11c.44-.69.24-1.62-.45-2.07Z"/></g><path d="M40 0a40 40 0 1 0 0 80 40 40 0 0 0 0-80Zm.357 18.571c-12.032 0-21.786 9.754-21.786 21.786 0 12.032 9.754 21.786 21.786 21.786 12.032 0 21.786-9.754 21.786-21.786 0-12.032-9.754-21.786-21.786-21.786Z" clip-rule="evenodd" fill="#3F2AFF" fill-rule="evenodd"/></g></svg>