<svg width="94" height="21" fill="none" xmlns="http://www.w3.org/2000/svg"><path d="M13.12 14.96c0 3.3-2.62 5.69-6.78 5.69A8.972 8.972 0 0 1 0 17.79l1.39-1.54c1.3 1.24 2.83 2.45 4.92 2.45 2.34 0 4.85-1.31 4.85-3.66 0-1.96-1.55-3.23-4.81-4.24C2.65 9.67.77 8.12.77 5.22.76 2.35 3.18 0 6.64 0c2.57 0 4.19 1.1 5.75 2.51l-1.36 1.52c-1.38-1.22-2.69-2.05-4.3-2.05-2 0-3.96 1.29-3.96 3.15 0 1.68.96 2.75 4.37 3.8 3.12.96 5.98 2.46 5.98 6.03ZM29.94 1.89a1.632 1.632 0 0 0 2.79 1.16c.23-.23.38-.52.44-.84a1.6 1.6 0 0 0-.09-.94c-.12-.3-.33-.55-.6-.74a1.61 1.61 0 0 0-.9-.27c-.91 0-1.64.73-1.64 1.63Zm20.38 17.78s1.21.99 5.25.99h-.01c3.99 0 7.22-2.92 7.22-6.92 0-3.99-3.23-6.9-7.21-6.9-1.13-.03-2.25.2-3.28.67V.59h-1.97v19.08Zm14.76-5.91c0 4 3.23 7.24 7.21 7.24s7.21-3.24 7.21-7.24c0-3.99-3.23-7.23-7.21-7.23s-7.21 3.24-7.21 7.23Zm26.35 6.57H94l-5.68-6.78 5.29-6.36h-2.55l-4.02 4.83L83 7.19h-2.57l5.33 6.37-5.63 6.77h2.55l4.36-5.24 4.39 5.24ZM72.31 8.49a5.213 5.213 0 0 0-4.85 3.25 5.272 5.272 0 0 0 3.82 7.18c1.02.2 2.08.1 3.03-.3.97-.4 1.79-1.08 2.36-1.95.58-.86.89-1.88.89-2.92 0-2.91-2.35-5.26-5.25-5.26Zm-16.73.33c-1.18.01-2.32.39-3.28 1.06v8.15c1.02.49 2.15.72 3.28.66 2.89 0 5.24-2.03 5.24-4.94 0-2.9-2.35-4.93-5.24-4.93ZM45.74.6h-1.96v19.73h1.96V.6Zm-8.51 0h1.96v19.73h-1.96V.6ZM18.2 13.44v-.02.02Zm0 6.89v-6.89l6.88 6.89h2.78l-6.88-6.9 6.23-6.25h-2.78l-6.23 6.24V.6h-1.96v19.73h1.96Zm12.46 0h1.97V7.18h-1.97v13.15Z" fill="#FFF" fill-rule="evenodd"/></svg>