<svg width="77.778" height="80" fill="none" xmlns="http://www.w3.org/2000/svg"><defs><clipPath id="b"><rect rx="0" width="22.611" height="23.286" transform="translate(27.583 28.357)" fill="#fff" fill-opacity="0"/></clipPath><clipPath id="a"><rect rx="0" width="76.778" height="79" transform="translate(.5 .5)" fill="#fff" fill-opacity="0"/></clipPath></defs><rect rx="0" width="76.778" height="79" transform="translate(.5 .5)"/><g clip-path="url(#a)"><path d="M38.889 0a37.953 37.953 0 0 0-14.882 3.045 38.836 38.836 0 0 0-12.617 8.67C4.097 19.218 0 29.392 0 40c0 10.609 4.097 20.783 11.39 28.284a38.836 38.836 0 0 0 12.617 8.671A37.954 37.954 0 0 0 38.889 80c10.314 0 20.205-4.214 27.498-11.716C73.68 60.783 77.778 50.61 77.778 40a40.993 40.993 0 0 0-2.96-15.307 40.095 40.095 0 0 0-8.43-12.977 38.836 38.836 0 0 0-12.616-8.671A37.953 37.953 0 0 0 38.889 0Zm.347 18.571c-11.698 0-21.18 9.754-21.18 21.786 0 12.032 9.482 21.786 21.18 21.786s21.18-9.754 21.18-21.786c0-12.032-9.482-21.786-21.18-21.786Z" clip-rule="evenodd" fill="#3F2AFF" fill-rule="evenodd"/><rect rx="0" width="22.611" height="23.286" transform="translate(27.583 28.357)"/><g clip-path="url(#b)" fill="#212133"><path d="M38.88 43.11v-9.26c-.25.02-.5.06-.76.07h-7.35a.75.75 0 0 0-.74.76v.76h-2.21a.75.75 0 0 0-.74.76v4.55c0 .42.33.76.74.76h2.21v.76c0 .42.33.76.74.76h.44l2.97 8.13c.18.49.59.84 1.09.95a1.428 1.428 0 0 0 1.33-.42l1.77-1.81c.45-.46.56-1.19.27-1.76l-2.47-5.09h1.96c.25.01.5.05.75.08Zm11.69-14.89c-.02-.03-.03-.05-.05-.07a.671.671 0 0 0-.31-.24c0-.01-.01-.01-.01-.01-.01-.01-.03 0-.04-.01a.779.779 0 0 0-.21-.04c-.05 0-.09.02-.14.03-.03.01-.06.01-.08.02a.72.72 0 0 0-.33.21c0 .01-.01.01-.02.02a15.5 15.5 0 0 1-9.02 5.5v9.7c3.51.7 6.72 2.62 9.02 5.49.01.01.02.02.03.02.05.06.11.11.18.15.02.01.04.03.06.04.09.05.19.07.3.07.09 0 .17-.01.25-.04l.01-.01c.13-.05.23-.14.31-.25.02-.02.03-.04.05-.07a.72.72 0 0 0 .12-.39V28.61c0-.14-.05-.27-.12-.39Z"/></g></g></svg>